<svg xmlns="http://www.w3.org/2000/svg" width="1280" height="420" viewBox="0 0 1280 420" role="img" aria-labelledby="title desc">
  <title id="title">Bayu Pratama — Software Developer</title>
  <desc id="desc">Web applications, mobile experiences, and the systems behind them. Dark navy banner with gold typography and architectural line artwork.</desc>
  <defs>
    <linearGradient id="bg" x2="1" y2="1"><stop stop-color="#101c2c"/><stop offset="1" stop-color="#080e18"/></linearGradient>
    <linearGradient id="accent"><stop stop-color="#e1c38a"/><stop offset="1" stop-color="#64cbbf"/></linearGradient>
    <pattern id="grid" width="40" height="40" patternUnits="userSpaceOnUse"><path d="M40 0H0V40" fill="none" stroke="#344458" stroke-opacity=".22"/></pattern>
  </defs>
  <rect width="1280" height="420" rx="18" fill="url(#bg)"/>
  <rect x="790" width="490" height="420" fill="url(#grid)"/>
  <path d="M64 65H1216" stroke="#2b394a"/>
  <rect x="64" y="64" width="110" height="2" fill="url(#accent)"/>
  <g font-family="Segoe UI,Arial,sans-serif">
    <text x="64" y="112" fill="#e1c38a" font-size="13" letter-spacing="4">BAYUPRA7AMA / SOFTWARE DEVELOPMENT</text>
    <text x="60" y="192" fill="#f3f5f7" font-size="66" font-weight="700" letter-spacing="-2">Bayu Pratama.</text>
    <text x="64" y="235" fill="#b4c2d1" font-size="23">Turning everyday workflows into useful software.</text>
    <text x="64" y="288" fill="#78d4c5" font-size="14" letter-spacing="3">WEB APPLICATIONS · MOBILE · BACKEND</text>
    <path d="M64 331H744" stroke="#2b394a"/>
    <text x="64" y="368" fill="#8596aa" font-size="14">Laravel / Flutter / Kotlin / Firebase</text>
  </g>
  <g fill="none" stroke-width="1.5">
    <rect x="915" y="107" width="228" height="228" rx="22" stroke="#466076" transform="rotate(-12 1029 221)"/>
    <rect x="928" y="119" width="204" height="204" rx="18" stroke="#bba779" transform="rotate(8 1030 221)"/>
    <rect x="947" y="137" width="168" height="168" rx="14" fill="#111f2e" stroke="#5a958f"/>
    <path d="m994 198-25 23 25 23m74-46 25 23-25 23m-27-36-21 72" stroke="#d9c18e" stroke-width="4" stroke-linecap="round" stroke-linejoin="round"/>
    <path d="M1148 160h40v-43m-271 169h-43v43" stroke="#64cbbf"/>
  </g>
  <circle cx="1188" cy="112" r="4" fill="#64cbbf"/>
  <circle cx="874" cy="334" r="4" fill="#e1c38a"/>
</svg>